<svg xmlns="http://www.w3.org/2000/svg" xmlns:xlink="http://www.w3.org/1999/xlink" width="1000" height="700" version="1.1">
<style type="text/css">
.l0{
  fill: #000000;
  stroke: #000000;
  stroke-linecap:round;
  stroke-linejoin:round;
  stroke-width: 3.43475;
}
.l1{
  fill: #00ccee;
  stroke: #00ccee;
  stroke-linecap:round;
  stroke-linejoin:round;
  stroke-width: 3.43475;
}
.l2{
  fill: #4f4f4f; fill-opacity: 0.2;
  stroke: #4f4f4f;
  stroke-linecap:round;
  stroke-linejoin:round;
  stroke-width: 3.43475;
}
.l3{
  fill: #cccccc; fill-opacity: 0.5;
  stroke: #cccccc;
  stroke-linecap:round;
  stroke-linejoin:round;
  stroke-width: 3.43475;
}
.l4{
  fill: #88dd00;
  stroke: #88dd00;
  stroke-linecap:round;
  stroke-linejoin:round;
  stroke-width: 3.43475;
}
.l5{
  fill: #bb2200;
  stroke: #bb2200;
  stroke-linecap:round;
  stroke-linejoin:round;
  stroke-width: 3.43475;
}
.l6{
  fill: #00ccee; fill-opacity: 0.5;
  stroke: #00ccee;
  stroke-linecap:round;
  stroke-linejoin:round;
  stroke-width: 3.43475;
}
.l7{
  fill: #ff0000; fill-opacity: 0.5;
  stroke: #ff0000;
  stroke-linecap:round;
  stroke-linejoin:round;
  stroke-width: 3.43475;
}
.l8{
  fill: #ffff00; fill-opacity: 0.5;
  stroke: #ffff00;
  stroke-linecap:round;
  stroke-linejoin:round;
  stroke-width: 3.43475;
}
.l9{
  fill: #ffffff; fill-opacity: 0.5;
  stroke: #ffffff;
  stroke-linecap:round;
  stroke-linejoin:round;
  stroke-width: 3.43475;
}
.l10{
  fill: #ff00ff;
  stroke: #ff00ff;
  stroke-linecap:round;
  stroke-linejoin:round;
  stroke-width: 3.43475;
}
.l11{
  fill: #00ff00; fill-opacity: 0.5;
  stroke: #00ff00;
  stroke-linecap:round;
  stroke-linejoin:round;
  stroke-width: 3.43475;
}
.l12{
  fill: #0044dd; fill-opacity: 0.5;
  stroke: #0044dd;
  stroke-linecap:round;
  stroke-linejoin:round;
  stroke-width: 3.43475;
}
.l13{
  fill: #aaaa00; fill-opacity: 0.5;
  stroke: #aaaa00;
  stroke-linecap:round;
  stroke-linejoin:round;
  stroke-width: 3.43475;
}
.l14{
  fill: #aaccaa; fill-opacity: 0.2;
  stroke: #aaccaa;
  stroke-linecap:round;
  stroke-linejoin:round;
  stroke-width: 3.43475;
}
.l15{
  fill: #ff7777; fill-opacity: 0.5;
  stroke: #ff7777;
  stroke-linecap:round;
  stroke-linejoin:round;
  stroke-width: 3.43475;
}
.l16{
  fill: #bfff81; fill-opacity: 0.5;
  stroke: #bfff81;
  stroke-linecap:round;
  stroke-linejoin:round;
  stroke-width: 3.43475;
}
.l17{
  fill: #00ffcc; fill-opacity: 0.2;
  stroke: #00ffcc;
  stroke-linecap:round;
  stroke-linejoin:round;
  stroke-width: 3.43475;
}
.l18{
  fill: #ce0097; fill-opacity: 0.5;
  stroke: #ce0097;
  stroke-linecap:round;
  stroke-linejoin:round;
  stroke-width: 3.43475;
}
.l19{
  fill: #d2d46b; fill-opacity: 0.2;
  stroke: #d2d46b;
  stroke-linecap:round;
  stroke-linejoin:round;
  stroke-width: 3.43475;
}
.l20{
  fill: #ef6158; fill-opacity: 0.2;
  stroke: #ef6158;
  stroke-linecap:round;
  stroke-linejoin:round;
  stroke-width: 3.43475;
}
.l21{
  fill: #fdb200; fill-opacity: 0.2;
  stroke: #fdb200;
  stroke-linecap:round;
  stroke-linejoin:round;
  stroke-width: 3.43475;
}
text {font-family: Sans-Serif;}
</style>
<rect class="l0" x="0" y="0" width="1000" height="700"/>
<text fill="#cccccc"  xml:space="preserve" font-size="49.6131" transform="translate(70.6557, 375.967)" >@symname</text>
<text fill="#cccccc"  xml:space="preserve" font-size="33.0754" transform="translate(929.344, 55.639)" >@name</text>
<text fill="#cccccc"  xml:space="preserve" font-size="33.0754" transform="translate(102.459, 112.885)" >avdd</text>
<text fill="#cccccc"  xml:space="preserve" font-size="33.0754" transform="translate(102.459, 176.491)" >avss</text>
<text fill="#cccccc"  xml:space="preserve" font-size="33.0754" transform="translate(102.459, 240.098)" >dvdd</text>
<text fill="#cccccc"  xml:space="preserve" font-size="33.0754" transform="translate(102.459, 303.705)" >dvss</text>
<text fill="#cccccc"  xml:space="preserve" font-size="33.0754" transform="translate(102.459, 367.311)" >vbg_1v2</text>
<text fill="#cccccc"  xml:space="preserve" font-size="33.0754" transform="translate(803.541, 112.885)" >ovout</text>
<text fill="#cccccc"  xml:space="preserve" font-size="33.0754" transform="translate(825.541, 176.491)" >itest</text>
<text fill="#cccccc"  xml:space="preserve" font-size="33.0754" transform="translate(102.459, 430.918)" >otrip[3:0]</text>
<text fill="#cccccc"  xml:space="preserve" font-size="33.0754" transform="translate(847.541, 240.098)" >vin</text>
<text fill="#cccccc"  xml:space="preserve" font-size="33.0754" transform="translate(102.459, 494.524)" >ena</text>
<text fill="#cccccc"  xml:space="preserve" font-size="33.0754" transform="translate(102.459, 558.131)" >isrc_sel</text>
<text fill="#cccccc"  xml:space="preserve" font-size="33.0754" transform="translate(102.459, 621.737)" >ibg_200n</text>
<path class="l4" d="M86.5574 63.7705L913.443 63.7705"/>
<path class="l4" d="M86.5574 636.23L913.443 636.23"/>
<path class="l4" d="M86.5574 63.7705L86.5574 636.23"/>
<path class="l4" d="M913.443 63.7705L913.443 636.23"/>
<path class="l4" d="M22.9508 95.5738L86.5574 95.5738"/>
<path class="l4" d="M22.9508 159.18L86.5574 159.18"/>
<path class="l4" d="M22.9508 222.787L86.5574 222.787"/>
<path class="l4" d="M22.9508 286.393L86.5574 286.393"/>
<path class="l4" d="M22.9508 350L86.5574 350"/>
<path class="l4" d="M913.443 95.5738L977.049 95.5738"/>
<path class="l4" d="M913.443 159.18L977.049 159.18"/>
<path class="l4" d="M22.9508 413.607L86.5574 413.607"/>
<path class="l4" d="M913.443 222.787L977.049 222.787"/>
<path class="l4" d="M22.9508 477.213L86.5574 477.213"/>
<path class="l4" d="M22.9508 540.82L86.5574 540.82"/>
<path class="l4" d="M22.9508 604.426L86.5574 604.426"/>
<path class="l5" d="M15 87.623L30.9016 87.623L30.9016 103.525L15 103.525L15 87.623z"/>
<path class="l5" d="M15 151.23L30.9016 151.23L30.9016 167.131L15 167.131L15 151.23z"/>
<path class="l5" d="M15 214.836L30.9016 214.836L30.9016 230.738L15 230.738L15 214.836z"/>
<path class="l5" d="M15 278.443L30.9016 278.443L30.9016 294.344L15 294.344L15 278.443z"/>
<path class="l5" d="M15 342.049L30.9016 342.049L30.9016 357.951L15 357.951L15 342.049z"/>
<path class="l5" d="M969.098 87.623L985 87.623L985 103.525L969.098 103.525L969.098 87.623z"/>
<path class="l5" d="M969.098 151.23L985 151.23L985 167.131L969.098 167.131L969.098 151.23z"/>
<path class="l5" d="M15 405.656L30.9016 405.656L30.9016 421.557L15 421.557L15 405.656z"/>
<path class="l5" d="M969.098 214.836L985 214.836L985 230.738L969.098 230.738L969.098 214.836z"/>
<path class="l5" d="M15 469.262L30.9016 469.262L30.9016 485.164L15 485.164L15 469.262z"/>
<path class="l5" d="M15 532.869L30.9016 532.869L30.9016 548.77L15 548.77L15 532.869z"/>
<path class="l5" d="M15 596.475L30.9016 596.475L30.9016 612.377L15 612.377L15 596.475z"/>
</svg>
